HIERARCHY
ROOT Hips
{
	OFFSET 0.000000 0.000000 0.000000
	CHANNELS 6 Xposition Yposition Zposition Xrotation Yrotation Zrotation
	JOINT LeftUpLeg_virtual
	{
		OFFSET 0.000000 0.000000 0.000000
		CHANNELS 3 Xrotation Yrotation Zrotation
		JOINT LeftUpLeg
		{
			OFFSET 15.427100 -6.655098 0.678600
			CHANNELS 3 Xrotation Yrotation Zrotation
			JOINT LeftLeg
			{
				OFFSET 4.081073 -39.591068 13.024000
				CHANNELS 3 Xrotation Yrotation Zrotation
				JOINT LeftFoot
				{
					OFFSET -4.081074 -37.707932 -15.979700
					CHANNELS 3 Xrotation Yrotation Zrotation
					JOINT LeftToeBase
					{
						OFFSET 5.346399 -15.068900 20.645000
						CHANNELS 3 Xrotation Yrotation Zrotation
						JOINT LeftToe_End
						{
							OFFSET 2.754700 0.931300 11.300900
							CHANNELS 3 Xrotation Yrotation Zrotation
							End Site
							{
								OFFSET 0 0 0
							}
						}
					}
				}
			}
		}
	}
	JOINT RightUpLeg_virtual
	{
		OFFSET 0.000000 0.000000 0.000000
		CHANNELS 3 Xrotation Yrotation Zrotation
		JOINT RightUpLeg
		{
			OFFSET -15.569500 -6.655098 0.678600
			CHANNELS 3 Xrotation Yrotation Zrotation
			JOINT RightLeg
			{
				OFFSET -4.081825 -39.591045 13.023800
				CHANNELS 3 Xrotation Yrotation Zrotation
				JOINT RightFoot
				{
					OFFSET 4.081824 -37.707954 -15.979600
					CHANNELS 3 Xrotation Yrotation Zrotation
					JOINT RightToeBase
					{
						OFFSET -5.346400 -15.068900 20.645000
						CHANNELS 3 Xrotation Yrotation Zrotation
						JOINT RightToe_End
						{
							OFFSET -2.754700 0.931300 11.300900
							CHANNELS 3 Xrotation Yrotation Zrotation
							End Site
							{
								OFFSET 0 0 0
							}
						}
					}
				}
			}
		}
	}
	JOINT Spine_virtual
	{
		OFFSET 0.000000 0.000000 0.000000
		CHANNELS 3 Xrotation Yrotation Zrotation
		JOINT Spine
		{
			OFFSET -0.279200 12.230698 -2.892100
			CHANNELS 3 Xrotation Yrotation Zrotation
			JOINT Spine1
			{
				OFFSET -0.232667 10.192268 -1.242267
				CHANNELS 3 Xrotation Yrotation Zrotation
				JOINT Spine1_split
				{
					OFFSET -0.232667 10.192268 -1.242267
					CHANNELS 3 Xrotation Yrotation Zrotation
					JOINT Spine2
					{
						OFFSET -0.232667 10.192268 -1.242267
						CHANNELS 3 Xrotation Yrotation Zrotation
						JOINT Neck_virtual
						{
							OFFSET 0.000000 0.000000 0.000000
							CHANNELS 3 Xrotation Yrotation Zrotation
							JOINT Neck
							{
								OFFSET -0.418800 17.814194 8.416900
								CHANNELS 3 Xrotation Yrotation Zrotation
								JOINT Head
								{
									OFFSET 0.000000 7.031097 3.806800
									CHANNELS 3 Xrotation Yrotation Zrotation
									JOINT HeadTop_End
									{
										OFFSET 0.000000 24.646606 12.978600
										CHANNELS 3 Xrotation Yrotation Zrotation
										End Site
										{
											OFFSET 0 0 0
										}
									}
								}
							}
						}
						JOINT LeftShoulder_virtual
						{
							OFFSET 0.000000 0.000000 0.000000
							CHANNELS 3 Xrotation Yrotation Zrotation
							JOINT LeftShoulder
							{
								OFFSET 8.476499 7.247704 -3.868750
								CHANNELS 3 Xrotation Yrotation Zrotation
								JOINT LeftShoulder_split
								{
									OFFSET 8.476499 7.247704 -3.868750
									CHANNELS 3 Xrotation Yrotation Zrotation
									JOINT LeftArm
									{
										OFFSET 9.308998 -2.777710 0.208600
										CHANNELS 3 Xrotation Yrotation Zrotation
										JOINT LeftForeArm
										{
											OFFSET 29.972298 0.000000 0.000000
											CHANNELS 3 Xrotation Yrotation Zrotation
											JOINT LeftHand
											{
												OFFSET 26.026505 0.000000 0.000000
												CHANNELS 3 Xrotation Yrotation Zrotation
												End Site
												{
													OFFSET 0 0 0
												}
											}
										}
									}
								}
							}
						}
						JOINT RightShoulder_virtual
						{
							OFFSET 0.000000 0.000000 0.000000
							CHANNELS 3 Xrotation Yrotation Zrotation
							JOINT RightShoulder
							{
								OFFSET -7.570500 7.247704 -3.868750
								CHANNELS 3 Xrotation Yrotation Zrotation
								JOINT RightShoulder_split
								{
									OFFSET -7.570500 7.247704 -3.868750
									CHANNELS 3 Xrotation Yrotation Zrotation
									JOINT RightArm
									{
										OFFSET -9.308998 -2.777710 0.208500
										CHANNELS 3 Xrotation Yrotation Zrotation
										JOINT RightForeArm
										{
											OFFSET -29.972300 0.000000 0.000000
											CHANNELS 3 Xrotation Yrotation Zrotation
											JOINT RightHand
											{
												OFFSET -26.026505 0.000000 0.000000
												CHANNELS 3 Xrotation Yrotation Zrotation
												End Site
												{
													OFFSET 0 0 0
												}
											}
										}
									}
								}
							}
						}
					}
				}
			}
		}
	}
}
MOTION
Frames: 10
Frame Time: 0.03333333
-1.168433 9.129791 23.617004 0.000000 0.000000 0.000000 -88.410754 -2.712657 0.763769 -27.913279 17.513281 -6.955358 34.564039 -1.775101 -4.845648 2.044377 4.702215 11.007706 8.294648 -0.675808 2.574459 0.000000 0.000000 0.000000 -90.522512 -2.440196 -1.379641 -13.327163 -6.030367 -5.197569 12.258400 -2.310392 4.004712 14.962535 -1.104357 17.094823 -3.008215 -0.142549 0.163160 0.000000 0.000000 0.000000 -86.680373 -3.288105 -1.708607 4.215506 2.691106 -1.961838 -1.207478 1.043077 -0.220921 0.468419 0.897940 -0.411658 0.000000 0.000000 0.000000 -2.213353 0.435028 0.170373 2.201015 0.728836 -0.002752 10.545897 -5.214936 10.234511 0.000000 0.000000 0.000000 -2.677223 1.021217 0.178017 1.023413 -14.264463 -3.718951 -2.990668 0.070695 -4.032858 27.759315 0.725354 -69.194317 -179.008384 -38.996019 -178.303099 0.000000 0.000000 0.000000 -1.944450 0.688998 -0.745924 1.325758 3.113244 0.203500 1.214223 4.264862 0.247996 12.122360 6.191785 72.613940 -179.595057 47.086525 -179.182664 0.000000 0.000000 0.000000 
-1.167497 9.129639 23.617044 0.000000 0.000000 0.000000 -88.408589 -2.713006 0.763658 -27.916330 17.510206 -6.957135 34.563257 -1.774339 -4.845695 2.046603 4.702753 11.006277 8.295076 -0.675924 2.573729 0.000000 0.000000 0.000000 -90.518755 -2.437833 -1.376405 -13.325054 -6.033807 -5.200503 12.256865 -2.309738 4.005479 14.964787 -1.106877 17.093566 -3.006711 -0.143239 0.164170 0.000000 0.000000 0.000000 -86.678270 -3.289773 -1.711226 4.216422 2.690577 -1.961966 -1.209158 1.042829 -0.220949 0.469954 0.905021 -0.413058 0.000000 0.000000 0.000000 -2.214564 0.434213 0.169790 2.197216 0.728126 -0.003360 10.547361 -5.214130 10.231658 0.000000 0.000000 0.000000 -2.680519 1.021507 0.177156 1.025442 -14.264481 -3.712552 -2.993876 0.070155 -4.042202 27.761896 0.731657 -69.203060 -179.004341 -38.984705 -178.298728 0.000000 0.000000 0.000000 -1.946008 0.688831 -0.746328 1.323502 3.110535 0.199678 1.224017 4.270758 0.246700 12.130624 6.189044 72.613544 -179.596122 47.068705 -179.182595 0.000000 0.000000 0.000000 
-1.166720 9.128384 23.617220 0.000000 0.000000 0.000000 -88.404682 -2.712697 0.763969 -27.922215 17.507310 -6.959216 34.565508 -1.773107 -4.846276 2.049175 4.703994 11.004998 8.296590 -0.675809 2.573813 0.000000 0.000000 0.000000 -90.513346 -2.434629 -1.372250 -13.323395 -6.040353 -5.204266 12.255284 -2.310646 4.006480 14.964055 -1.114097 17.087848 -3.000482 -0.143611 0.165815 0.000000 0.000000 0.000000 -86.675374 -3.291879 -1.714245 4.215925 2.688063 -1.960663 -1.211247 1.042350 -0.222142 0.469001 0.910369 -0.415096 0.000000 0.000000 0.000000 -2.214802 0.433949 0.168035 2.195955 0.729411 -0.001095 10.548028 -5.214716 10.233083 0.000000 0.000000 0.000000 -2.683706 1.021917 0.176343 1.028848 -14.264758 -3.691838 -2.995344 0.071636 -4.050455 27.768093 0.744524 -69.221502 -178.999669 -38.968394 -178.294999 0.000000 0.000000 0.000000 -1.948444 0.688255 -0.747382 1.321251 3.104442 0.192863 1.236612 4.283142 0.246941 12.141448 6.188752 72.614705 -179.594415 47.050967 -179.182199 0.000000 0.000000 0.000000 
-1.166053 9.126286 23.617395 0.000000 0.000000 0.000000 -88.399300 -2.712524 0.764481 -27.928724 17.504901 -6.961820 34.569449 -1.771246 -4.846707 2.050537 4.706169 11.003658 8.297631 -0.675522 2.574915 0.000000 0.000000 0.000000 -90.506208 -2.431038 -1.367670 -13.323745 -6.049691 -5.208704 12.253586 -2.311701 4.008233 14.962839 -1.123528 17.080495 -2.991617 -0.143512 0.167335 0.000000 0.000000 0.000000 -86.672068 -3.293961 -1.716746 4.213457 2.683933 -1.958194 -1.213675 1.041524 -0.223721 0.467722 0.913375 -0.415718 0.000000 0.000000 0.000000 -2.214051 0.434393 0.165934 2.197183 0.732456 0.002940 10.545687 -5.218198 10.238645 0.000000 0.000000 0.000000 -2.686678 1.022790 0.176234 1.032541 -14.263017 -3.664976 -2.999282 0.072824 -4.054976 27.775034 0.760282 -69.241377 -178.995503 -38.954444 -178.291734 0.000000 0.000000 0.000000 -1.951716 0.687545 -0.748421 1.319135 3.096633 0.185636 1.248897 4.298316 0.248395 12.153214 6.188843 72.614043 -179.589920 47.038324 -179.182308 0.000000 0.000000 0.000000 
-1.165556 9.123722 23.617231 0.000000 0.000000 0.000000 -88.392251 -2.713220 0.764697 -27.933602 17.503092 -6.965025 34.573028 -1.768950 -4.846340 2.049171 4.709038 11.002663 8.296790 -0.675138 2.576666 0.000000 0.000000 0.000000 -90.497643 -2.427736 -1.363047 -13.326710 -6.060695 -5.212642 12.252030 -2.311215 4.010451 14.962243 -1.132917 17.074430 -2.983986 -0.143040 0.167994 0.000000 0.000000 0.000000 -86.667929 -3.295865 -1.718133 4.209059 2.678893 -1.954360 -1.216521 1.040611 -0.224837 0.468810 0.911547 -0.414751 0.000000 0.000000 0.000000 -2.212476 0.435733 0.164593 2.200022 0.736775 0.007227 10.538101 -5.223500 10.246879 0.000000 0.000000 0.000000 -2.689007 1.024371 0.177291 1.035546 -14.255461 -3.642002 -3.004634 0.070609 -4.059336 27.780410 0.774023 -69.253269 -178.992593 -38.946278 -178.289111 0.000000 0.000000 0.000000 -1.955054 0.687111 -0.748674 1.317334 3.089890 0.180084 1.258051 4.315893 0.248184 12.163280 6.188065 72.608435 -179.583186 47.031610 -179.183497 0.000000 0.000000 0.000000 
-1.164891 9.120731 23.616978 0.000000 0.000000 0.000000 -88.384130 -2.714579 0.764893 -27.935861 17.502085 -6.968620 34.574513 -1.766199 -4.845110 2.044348 4.712475 11.003068 8.294984 -0.674755 2.578297 0.000000 0.000000 0.000000 -90.489488 -2.425745 -1.359286 -13.331350 -6.071908 -5.215241 12.250956 -2.308752 4.012141 14.961044 -1.141931 17.070212 -2.977582 -0.142468 0.167706 0.000000 0.000000 0.000000 -86.662956 -3.297817 -1.718299 4.203237 2.673899 -1.949032 -1.219777 1.040031 -0.224598 0.472009 0.906929 -0.411230 0.000000 0.000000 0.000000 -2.210309 0.437780 0.164868 2.202801 0.741971 0.010371 10.523973 -5.230959 10.256824 0.000000 0.000000 0.000000 -2.691149 1.026875 0.179605 1.036683 -14.240141 -3.633052 -3.013374 0.064040 -4.063557 27.783425 0.786088 -69.249539 -178.991651 -38.946732 -178.286816 0.000000 0.000000 0.000000 -1.958356 0.687272 -0.747734 1.316379 3.087367 0.177237 1.263921 4.334224 0.247631 12.170531 6.186402 72.596441 -179.575318 47.026802 -179.185587 0.000000 0.000000 0.000000 
-1.164135 9.117611 23.616158 0.000000 0.000000 0.000000 -88.376883 -2.717192 0.764690 -27.935347 17.501395 -6.971986 34.572666 -1.763345 -4.843269 2.037250 4.716534 11.005423 8.294077 -0.674385 2.579091 0.000000 0.000000 0.000000 -90.483532 -2.425832 -1.356722 -13.336852 -6.082064 -5.216352 12.251396 -2.305370 4.012895 14.958097 -1.151429 17.066168 -2.969654 -0.142104 0.166902 0.000000 0.000000 0.000000 -86.657233 -3.299500 -1.716842 4.197048 2.669267 -1.941799 -1.223611 1.040034 -0.222925 0.477544 0.900931 -0.406797 0.000000 0.000000 0.000000 -2.208082 0.440281 0.166577 2.204476 0.747483 0.011139 10.504830 -5.238945 10.266341 0.000000 0.000000 0.000000 -2.693075 1.029734 0.182808 1.035329 -14.217548 -3.642857 -3.020363 0.058999 -4.065425 27.778572 0.800373 -69.228817 -178.992825 -38.955403 -178.284221 0.000000 0.000000 0.000000 -1.961120 0.688051 -0.745705 1.316292 3.089848 0.177180 1.270027 4.352950 0.247700 12.175213 6.188350 72.580206 -179.569266 47.020716 -179.186229 0.000000 0.000000 0.000000 
-1.163603 9.114124 23.614567 0.000000 0.000000 0.000000 -88.371481 -2.720822 0.764358 -27.932754 17.500686 -6.974160 34.567441 -1.760607 -4.841816 2.030162 4.721116 11.009728 8.295184 -0.673913 2.578754 0.000000 0.000000 0.000000 -90.480800 -2.428668 -1.356089 -13.343435 -6.090058 -5.216231 12.254360 -2.301989 4.012682 14.954132 -1.161846 17.061124 -2.959053 -0.142266 0.166261 0.000000 0.000000 0.000000 -86.651147 -3.301668 -1.714078 4.190921 2.665012 -1.932444 -1.227931 1.040476 -0.220552 0.481411 0.894457 -0.405669 0.000000 0.000000 0.000000 -2.205857 0.442619 0.168885 2.204434 0.753542 0.009976 10.483753 -5.247622 10.275027 0.000000 0.000000 0.000000 -2.694632 1.032576 0.186239 1.031938 -14.188373 -3.669697 -3.024009 0.059509 -4.065367 27.761528 0.819272 -69.193354 -178.996186 -38.968951 -178.281762 0.000000 0.000000 0.000000 -1.962977 0.688916 -0.743332 1.317223 3.097585 0.178901 1.272847 4.372040 0.248788 12.180463 6.195869 72.563827 -179.567203 47.015129 -179.183633 0.000000 0.000000 0.000000 
-1.162849 9.110432 23.611984 0.000000 0.000000 0.000000 -88.368277 -2.724616 0.764399 -27.928954 17.500915 -6.974640 34.559798 -1.757982 -4.841947 2.025261 4.726081 11.015254 8.297910 -0.673348 2.577903 0.000000 0.000000 0.000000 -90.481517 -2.434234 -1.357446 -13.350472 -6.094816 -5.215410 12.260114 -2.298497 4.012229 14.951854 -1.172254 17.055727 -2.949114 -0.142992 0.166091 0.000000 0.000000 0.000000 -86.645799 -3.304644 -1.710541 4.185193 2.660711 -1.920826 -1.232604 1.041089 -0.218259 0.483520 0.889015 -0.407048 0.000000 0.000000 0.000000 -2.203756 0.444243 0.170803 2.203162 0.759832 0.008148 10.463087 -5.257427 10.283040 0.000000 0.000000 0.000000 -2.696398 1.034797 0.189134 1.027316 -14.155238 -3.708725 -3.030202 0.069713 -4.065037 27.737289 0.839073 -69.148938 -179.001595 -38.986409 -178.279822 0.000000 0.000000 0.000000 -1.964132 0.689452 -0.741497 1.319353 3.109895 0.181707 1.271598 4.390321 0.252068 12.186373 6.207129 72.551191 -179.569717 47.014374 -179.177240 0.000000 0.000000 0.000000 
-1.162125 9.106483 23.608149 0.000000 0.000000 0.000000 -88.366918 -2.728095 0.764939 -27.924311 17.502107 -6.973485 34.550713 -1.755945 -4.844294 2.023017 4.730774 11.021666 8.300357 -0.672803 2.577770 0.000000 0.000000 0.000000 -90.484208 -2.440929 -1.360001 -13.356949 -6.096291 -5.213864 12.266306 -2.294717 4.011753 14.953041 -1.182016 17.050580 -2.944848 -0.144043 0.166258 0.000000 0.000000 0.000000 -86.641482 -3.308588 -1.707099 4.180256 2.655563 -1.907189 -1.237462 1.041385 -0.216715 0.481463 0.886746 -0.408028 0.000000 0.000000 0.000000 -2.201179 0.444974 0.171699 2.201154 0.767607 0.006398 10.443673 -5.266767 10.290483 0.000000 0.000000 0.000000 -2.698219 1.036190 0.191189 1.022692 -14.121067 -3.750700 -3.036542 0.084880 -4.064550 27.714802 0.851711 -69.105436 -179.008221 -39.006138 -178.279207 0.000000 0.000000 0.000000 -1.964381 0.689227 -0.740892 1.321820 3.124519 0.183492 1.271139 4.407252 0.256083 12.190387 6.218315 72.543835 -179.576287 47.019859 -179.167828 0.000000 0.000000 0.000000 
